<svg width="56" height="56" viewBox="0 0 56 56" fill="none" xmlns="http://www.w3.org/2000/svg">
<g id="Group 20">
<circle id="Oval" cx="28.0001" cy="28" r="28" fill="url(#paint0_linear_0_443)"/>
<path id="Mask" fill-rule="evenodd" clip-rule="evenodd" d="M26.0001 28C24.9001 28 24.0001 28.9 24.0001 30C24.0001 31.1 24.9001 32 26.0001 32C27.1001 32 28.0001 31.1 28.0001 30C28.0001 28.9 27.1001 28 26.0001 28ZM22.0001 24C20.9001 24 20.0001 24.9 20.0001 26C20.0001 27.1 20.9001 28 22.0001 28C23.1001 28 24.0001 27.1 24.0001 26C24.0001 24.9 23.1001 24 22.0001 24ZM22.0001 32C20.9001 32 20.0001 32.9 20.0001 34C20.0001 35.1 20.9001 36 22.0001 36C23.1001 36 24.0001 35.1 24.0001 34C24.0001 32.9 23.1001 32 22.0001 32ZM34.0001 24C35.1001 24 36.0001 23.1 36.0001 22C36.0001 20.9 35.1001 20 34.0001 20C32.9001 20 32.0001 20.9 32.0001 22C32.0001 23.1 32.9001 24 34.0001 24ZM30.0001 32C28.9001 32 28.0001 32.9 28.0001 34C28.0001 35.1 28.9001 36 30.0001 36C31.1001 36 32.0001 35.1 32.0001 34C32.0001 32.9 31.1001 32 30.0001 32ZM34.0001 28C32.9001 28 32.0001 28.9 32.0001 30C32.0001 31.1 32.9001 32 34.0001 32C35.1001 32 36.0001 31.1 36.0001 30C36.0001 28.9 35.1001 28 34.0001 28ZM30.0001 24C28.9001 24 28.0001 24.9 28.0001 26C28.0001 27.1 28.9001 28 30.0001 28C31.1001 28 32.0001 27.1 32.0001 26C32.0001 24.9 31.1001 24 30.0001 24ZM26.0001 20C24.9001 20 24.0001 20.9 24.0001 22C24.0001 23.1 24.9001 24 26.0001 24C27.1001 24 28.0001 23.1 28.0001 22C28.0001 20.9 27.1001 20 26.0001 20Z" fill="white"/>
<mask id="mask0_0_443" style="mask-type:alpha" maskUnits="userSpaceOnUse" x="20" y="20" width="17" height="16">
<path id="Mask_2" fill-rule="evenodd" clip-rule="evenodd" d="M26.0001 28C24.9001 28 24.0001 28.9 24.0001 30C24.0001 31.1 24.9001 32 26.0001 32C27.1001 32 28.0001 31.1 28.0001 30C28.0001 28.9 27.1001 28 26.0001 28ZM22.0001 24C20.9001 24 20.0001 24.9 20.0001 26C20.0001 27.1 20.9001 28 22.0001 28C23.1001 28 24.0001 27.1 24.0001 26C24.0001 24.9 23.1001 24 22.0001 24ZM22.0001 32C20.9001 32 20.0001 32.9 20.0001 34C20.0001 35.1 20.9001 36 22.0001 36C23.1001 36 24.0001 35.1 24.0001 34C24.0001 32.9 23.1001 32 22.0001 32ZM34.0001 24C35.1001 24 36.0001 23.1 36.0001 22C36.0001 20.9 35.1001 20 34.0001 20C32.9001 20 32.0001 20.9 32.0001 22C32.0001 23.1 32.9001 24 34.0001 24ZM30.0001 32C28.9001 32 28.0001 32.9 28.0001 34C28.0001 35.1 28.9001 36 30.0001 36C31.1001 36 32.0001 35.1 32.0001 34C32.0001 32.9 31.1001 32 30.0001 32ZM34.0001 28C32.9001 28 32.0001 28.9 32.0001 30C32.0001 31.1 32.9001 32 34.0001 32C35.1001 32 36.0001 31.1 36.0001 30C36.0001 28.9 35.1001 28 34.0001 28ZM30.0001 24C28.9001 24 28.0001 24.9 28.0001 26C28.0001 27.1 28.9001 28 30.0001 28C31.1001 28 32.0001 27.1 32.0001 26C32.0001 24.9 31.1001 24 30.0001 24ZM26.0001 20C24.9001 20 24.0001 20.9 24.0001 22C24.0001 23.1 24.9001 24 26.0001 24C27.1001 24 28.0001 23.1 28.0001 22C28.0001 20.9 27.1001 20 26.0001 20Z" fill="white"/>
</mask>
<g mask="url(#mask0_0_443)">
</g>
</g>
<defs>
<linearGradient id="paint0_linear_0_443" x1="0.00012207" y1="0" x2="0.00012207" y2="56" gradientUnits="userSpaceOnUse">
<stop stop-color="#FF6F48"/>
<stop offset="1" stop-color="#F02AA6"/>
</linearGradient>
</defs>
</svg>
